<svg version="1.1" xmlns="http://www.w3.org/2000/svg" viewBox="0 0 1103 903.65" width="1103" height="903.65"><!-- svg-source:excalidraw --><metadata></metadata><defs><style class="style-fonts">
      </style></defs><rect x="0" y="0" width="1103" height="903.65" fill="#ffffff"></rect><g transform="translate(34 24) rotate(0 490 18.900000000000002)"><text x="0" y="26.460546875000002" font-family="Helvetica, Segoe UI Emoji" font-size="28px" fill="#1e1e1e" text-anchor="start" style="white-space: pre;" direction="ltr" dominant-baseline="alphabetic">Neo4j Labs · Self-hosted Python MCP server</text></g><g stroke-linecap="round" transform="translate(144 94) rotate(0 350 45)"><path d="M22.5 0 C164.79 -2.61, 309.83 -2.71, 677.5 0 C690.31 -0.58, 699.97 6.57, 700 22.5 C697.9 36.8, 700.96 44.42, 700 67.5 C701.53 85.63, 693.79 86.64, 677.5 90 C495.53 86.45, 315.18 86.93, 22.5 90 C8.72 89.93, 0.36 79.08, 0 67.5 C-1.11 52.11, 2.52 34.75, 0 22.5 C-0.95 10.2, 6.12 2.25, 22.5 0" stroke="none" stroke-width="0" fill="#e8e7ff"></path><path d="M22.5 0 C153.23 -0.69, 284.98 -0.63, 677.5 0 M22.5 0 C200.18 0.43, 378.38 0.04, 677.5 0 M677.5 0 C693.47 1.45, 700.77 7.87, 700 22.5 M677.5 0 C694.17 1.49, 698.58 7.58, 700 22.5 M700 22.5 C698.92 38.36, 698.7 55.85, 700 67.5 M700 22.5 C699.71 37.96, 699.41 53.57, 700 67.5 M700 67.5 C700.13 81.05, 693.39 88.26, 677.5 90 M700 67.5 C699.59 84.24, 690.42 89.03, 677.5 90 M677.5 90 C426.02 89.15, 175.9 89.98, 22.5 90 M677.5 90 C416.75 92.21, 156.33 91.77, 22.5 90 M22.5 90 C8.93 88.97, -1.75 83.79, 0 67.5 M22.5 90 C8.39 88.22, 1.92 83.02, 0 67.5 M0 67.5 C-0.47 50.52, -0.35 36.04, 0 22.5 M0 67.5 C-0.5 53.59, 0.55 38.95, 0 22.5 M0 22.5 C0.03 9.14, 6.8 -0.1, 22.5 0 M0 22.5 C1.75 5.32, 8.68 -0.48, 22.5 0" stroke="#6366f1" stroke-width="2" fill="none"></path></g><g transform="translate(162 112) rotate(0 332 13.5)"><text x="0" y="18.900390625" font-family="Helvetica, Segoe UI Emoji" font-size="20px" fill="#1e1e1e" text-anchor="start" style="white-space: pre;" direction="ltr" dominant-baseline="alphabetic">MCP host: Claude Code, Claude Desktop or another client</text></g><g stroke-linecap="round" transform="translate(224 264) rotate(0 270 45)"><path d="M22.5 0 C149.33 -0.81, 276.93 0.07, 517.5 0 C535.82 1.19, 540.82 6.49, 540 22.5 C541.15 39.56, 541.42 53.94, 540 67.5 C536.99 85.05, 531.04 89.79, 517.5 90 C345.28 91.52, 172.97 91.03, 22.5 90 C9.95 91.57, 1.08 83.86, 0 67.5 C2.23 59.6, -1.91 44.19, 0 22.5 C3.45 8.68, 4.66 1.29, 22.5 0" stroke="none" stroke-width="0" fill="#a5d8ff"></path><path d="M22.5 0 C121.85 -2.06, 220.58 -1.84, 517.5 0 M22.5 0 C129.19 2.16, 235.91 1.95, 517.5 0 M517.5 0 C530.87 -1.49, 538.53 7.12, 540 22.5 M517.5 0 C534.57 -1.99, 540.51 6.44, 540 22.5 M540 22.5 C538.48 31.43, 541.39 39.46, 540 67.5 M540 22.5 C539 36.38, 540.2 50.51, 540 67.5 M540 67.5 C541.32 81.85, 534.36 88.82, 517.5 90 M540 67.5 C540.81 84.37, 532.29 90.65, 517.5 90 M517.5 90 C411.62 88.98, 304.62 89.83, 22.5 90 M517.5 90 C403.58 91.24, 290.13 91.08, 22.5 90 M22.5 90 C9.15 88.39, 1.9 80.85, 0 67.5 M22.5 90 C7.45 88.19, 1.64 83.21, 0 67.5 M0 67.5 C1.44 51.15, 1.52 35.35, 0 22.5 M0 67.5 C0.22 54.99, -0.3 43.85, 0 22.5 M0 22.5 C0.9 9.13, 7.69 1.29, 22.5 0 M0 22.5 C0.51 5.77, 6.11 -0.54, 22.5 0" stroke="#1971c2" stroke-width="2" fill="none"></path></g><g transform="translate(242 282) rotate(0 252 13.5)"><text x="0" y="18.900390625" font-family="Helvetica, Segoe UI Emoji" font-size="20px" fill="#1e1e1e" text-anchor="start" style="white-space: pre;" direction="ltr" dominant-baseline="alphabetic">Python MCP server: stdio or Streamable HTTP</text></g><g stroke-linecap="round"><g transform="translate(494 184) rotate(0 0 40)"><path d="M-0.87 -1.19 C-0.55 11.81, 0.77 65.4, 0.72 79.06 M0.88 0.8 C1.21 14.44, 0.11 67.11, 0.16 80.1" stroke="#6366f1" stroke-width="2" fill="none"></path></g><g transform="translate(494 184) rotate(0 0 40)"><path d="M-8.17 56.52 C-8.28 62.52, -6.2 64.17, 0.16 80.1 M-8.17 56.52 C-4.77 64.39, -2.35 72.77, 0.16 80.1" stroke="#6366f1" stroke-width="2" fill="none"></path></g><g transform="translate(494 184) rotate(0 0 40)"><path d="M8.93 56.69 C5.39 62.53, 4.04 64.14, 0.16 80.1 M8.93 56.69 C6.18 64.55, 2.46 72.87, 0.16 80.1" stroke="#6366f1" stroke-width="2" fill="none"></path></g></g><mask></mask><g stroke-linecap="round" transform="translate(24 444) rotate(0 210 65)"><path d="M32 0 C147.6 -0.67, 257.3 -1.57, 388 0 C410.13 -3.35, 418.51 9.52, 420 32 C421.55 51.14, 417.63 70.01, 420 98 C420.99 121.01, 410.94 127.3, 388 130 C260.79 128.96, 133.95 130.5, 32 130 C7.77 126.83, -1.44 117.06, 0 98 C-0.69 72.57, -2.09 45.74, 0 32 C-0.75 13.18, 9.25 3.46, 32 0" stroke="none" stroke-width="0" fill="#e9ecef"></path><path d="M32 0 C103.93 -0.99, 174.81 -0.27, 388 0 M32 0 C114.23 -2.38, 197.23 -1.65, 388 0 M388 0 C409.82 -1.91, 419.16 9.17, 420 32 M388 0 C409.7 1.99, 418.8 12.5, 420 32 M420 32 C420.93 49.41, 418.52 66.1, 420 98 M420 32 C420.95 50.6, 420.39 70.56, 420 98 M420 98 C421.11 119.89, 410.64 129.66, 388 130 M420 98 C418.04 119.09, 409.63 130.78, 388 130 M388 130 C296.01 129.28, 201.47 130.67, 32 130 M388 130 C289.16 130.42, 190.72 130.2, 32 130 M32 130 C12.66 129.53, -0.63 121.26, 0 98 M32 130 C9.21 130.44, 1.22 118.03, 0 98 M0 98 C1.66 84.85, -0.31 71.36, 0 32 M0 98 C-1.28 78.78, -0.14 58.09, 0 32 M0 32 C0.21 12.29, 12.21 -0.63, 32 0 M0 32 C0.95 9.63, 10.02 -0.62, 32 0" stroke="#495057" stroke-width="2" fill="none"></path></g><g transform="translate(42 462) rotate(0 192 40.5)"><text x="0" y="18.900390625" font-family="Helvetica, Segoe UI Emoji" font-size="20px" fill="#1e1e1e" text-anchor="start" style="white-space: pre;" direction="ltr" dominant-baseline="alphabetic">Core profile</text><text x="0" y="45.900390625" font-family="Helvetica, Segoe UI Emoji" font-size="20px" fill="#1e1e1e" text-anchor="start" style="white-space: pre;" direction="ltr" dominant-baseline="alphabetic">6 registered tools</text><text x="0" y="72.900390625" font-family="Helvetica, Segoe UI Emoji" font-size="20px" fill="#1e1e1e" text-anchor="start" style="white-space: pre;" direction="ltr" dominant-baseline="alphabetic">1 conversation prompt</text></g><g stroke-linecap="round" transform="translate(544 444) rotate(0 225 65)"><path d="M32 0 C172 3.7, 307.86 4.3, 418 0 C438.45 -1.58, 449.36 9.43, 450 32 C447.24 54.97, 447.73 74.46, 450 98 C446.46 120.43, 438.19 130.44, 418 130 C330.66 126.02, 245.39 126.03, 32 130 C9.01 128.46, -0.72 121.84, 0 98 C2.91 82.44, 0.94 59.95, 0 32 C-3.54 11.66, 7.8 2.51, 32 0" stroke="none" stroke-width="0" fill="#ced4da"></path><path d="M32 0 C108.55 -3.14, 186.46 -2.24, 418 0 M32 0 C176.99 -0.3, 321.96 -0.55, 418 0 M418 0 C441.22 -0.85, 450.92 12.43, 450 32 M418 0 C440.09 -1.48, 450.74 11.37, 450 32 M450 32 C449.39 52.22, 450.11 69.18, 450 98 M450 32 C450.32 50.58, 451.26 66.61, 450 98 M450 98 C448.3 120.69, 437.61 130.21, 418 130 M450 98 C449.27 119.22, 441.5 127.8, 418 130 M418 130 C304.87 129.02, 192.85 130.32, 32 130 M418 130 C298.42 130.97, 179.41 130.01, 32 130 M32 130 C8.89 128.95, -0.98 118.32, 0 98 M32 130 C12.87 130.4, 0.94 118.23, 0 98 M0 98 C0.58 72.82, -1.43 49.38, 0 32 M0 98 C-0.6 81.17, -1.03 64.98, 0 32 M0 32 C1.08 12.28, 9.1 0.75, 32 0 M0 32 C-0.29 10.08, 12.05 -0.67, 32 0" stroke="#343a40" stroke-width="2" fill="none"></path></g><g transform="translate(562 462) rotate(0 207 40.5)"><text x="0" y="18.900390625" font-family="Helvetica, Segoe UI Emoji" font-size="20px" fill="#1e1e1e" text-anchor="start" style="white-space: pre;" direction="ltr" dominant-baseline="alphabetic">Extended profile</text><text x="0" y="45.900390625" font-family="Helvetica, Segoe UI Emoji" font-size="20px" fill="#1e1e1e" text-anchor="start" style="white-space: pre;" direction="ltr" dominant-baseline="alphabetic">16 Bolt / 20 NAMS registered tools</text><text x="0" y="72.900390625" font-family="Helvetica, Segoe UI Emoji" font-size="20px" fill="#1e1e1e" text-anchor="start" style="white-space: pre;" direction="ltr" dominant-baseline="alphabetic">3 prompts</text></g><g stroke-linecap="round"><g transform="translate(494 354) rotate(0 -130 45)"><path d="M-0.85 0.18 C-43.98 15.12, -216.99 74.29, -259.98 89.3 M0.91 -0.77 C-42.28 14.34, -217.61 75.06, -260.92 90.46" stroke="#6366f1" stroke-width="2" fill="none"></path></g><g transform="translate(494 354) rotate(0 -130 45)"><path d="M-241.58 74.63 C-245.2 77.69, -250.55 82.79, -260.92 90.46 M-241.58 74.63 C-247.2 80.05, -254.07 85.1, -260.92 90.46" stroke="#6366f1" stroke-width="2" fill="none"></path></g><g transform="translate(494 354) rotate(0 -130 45)"><path d="M-235.92 90.77 C-240.64 90.56, -247.12 92.42, -260.92 90.46 M-235.92 90.77 C-243.33 91, -252 90.9, -260.92 90.46" stroke="#6366f1" stroke-width="2" fill="none"></path></g></g><mask></mask><g stroke-linecap="round"><g transform="translate(494 354) rotate(0 137.5 45)"><path d="M0.59 -0.51 C46.53 14.57, 228.55 75.04, 274.39 90.3 M-0.55 -1.82 C45.88 12.89, 230.82 73.15, 276.79 88.34" stroke="#6366f1" stroke-width="2" fill="none"></path></g><g transform="translate(494 354) rotate(0 137.5 45)"><path d="M251.8 89.15 C255.97 87.86, 262.33 89.82, 276.79 88.34 M251.8 89.15 C261.35 89.55, 272.02 88.45, 276.79 88.34" stroke="#6366f1" stroke-width="2" fill="none"></path></g><g transform="translate(494 354) rotate(0 137.5 45)"><path d="M257.13 72.9 C260.21 74.89, 265.5 80.11, 276.79 88.34 M257.13 72.9 C264.59 79.65, 273.17 84.91, 276.79 88.34" stroke="#6366f1" stroke-width="2" fill="none"></path></g></g><mask></mask><g stroke-linecap="round" transform="translate(144 684) rotate(0 350 50)"><path d="M25 0 C180.47 0.96, 334.9 3.3, 675 0 C694.62 1.96, 701.07 6.92, 700 25 C698.23 38.58, 700.34 49.5, 700 75 C701.8 91.6, 692.21 99.52, 675 100 C436.89 97.42, 196.77 95.5, 25 100 C9.15 101.74, 0.72 89.34, 0 75 C0.44 62.66, -2.66 53.93, 0 25 C-1.94 6.3, 9.76 0.6, 25 0" stroke="none" stroke-width="0" fill="#a5d8ff"></path><path d="M25 0 C154.53 1.57, 284.93 0.9, 675 0 M25 0 C196.54 -1.09, 367.07 -1.71, 675 0 M675 0 C692.37 1.27, 700.44 8.6, 700 25 M675 0 C693.22 0.76, 700 6.76, 700 25 M700 25 C697.75 41.08, 700.72 60.81, 700 75 M700 25 C699.87 35.93, 699.81 48.47, 700 75 M700 75 C700.68 90.63, 691.88 101.33, 675 100 M700 75 C701.71 91.8, 692.98 101.04, 675 100 M675 100 C444.01 98.71, 213.65 99.62, 25 100 M675 100 C433.44 99.6, 191.74 99.52, 25 100 M25 100 C7.01 101.8, -1.68 92.76, 0 75 M25 100 C8.66 100.33, 0.37 90.95, 0 75 M0 75 C1.15 57.34, -0.94 41.56, 0 25 M0 75 C-0.08 57.48, 0.36 38.81, 0 25 M0 25 C-1.18 9.94, 8.56 -0.48, 25 0 M0 25 C1.82 8.67, 9.17 -0.78, 25 0" stroke="#1971c2" stroke-width="2" fill="none"></path></g><g transform="translate(162 702) rotate(0 332 27)"><text x="0" y="18.900390625" font-family="Helvetica, Segoe UI Emoji" font-size="20px" fill="#1e1e1e" text-anchor="start" style="white-space: pre;" direction="ltr" dominant-baseline="alphabetic">MemoryClient connects to your Neo4j database or NAMS</text><text x="0" y="45.900390625" font-family="Helvetica, Segoe UI Emoji" font-size="20px" fill="#1e1e1e" text-anchor="start" style="white-space: pre;" direction="ltr" dominant-baseline="alphabetic">Supported operations depend on the backend</text></g><g stroke-linecap="round"><g transform="translate(234 574) rotate(0 130 55)"><path d="M0.12 -0.16 C43.64 18.25, 216.76 92.75, 259.93 110.93 M-1.27 -1.29 C42.19 16.75, 215.13 90.81, 258.94 109.29" stroke="#6366f1" stroke-width="2" fill="none"></path></g><g transform="translate(234 574) rotate(0 130 55)"><path d="M233.98 107.97 C238.72 108.09, 245.54 107.08, 258.94 109.29 M233.98 107.97 C238.52 107.64, 245.31 108.79, 258.94 109.29" stroke="#6366f1" stroke-width="2" fill="none"></path></g><g transform="translate(234 574) rotate(0 130 55)"><path d="M240.67 92.23 C244.13 95.52, 249.61 97.66, 258.94 109.29 M240.67 92.23 C243.89 95.15, 249.29 99.56, 258.94 109.29" stroke="#6366f1" stroke-width="2" fill="none"></path></g></g><mask></mask><g stroke-linecap="round"><g transform="translate(769 574) rotate(0 -137.5 55)"><path d="M-0.83 -0.85 C-46.58 17.3, -230.17 91.1, -275.69 109.54 M0.93 1.32 C-44.32 19.57, -227.5 92.56, -273.34 110.83" stroke="#6366f1" stroke-width="2" fill="none"></path></g><g transform="translate(769 574) rotate(0 -137.5 55)"><path d="M-254.69 94.19 C-259.75 96.24, -262.85 102.5, -273.34 110.83 M-254.69 94.19 C-259.25 98.46, -265.27 103.2, -273.34 110.83" stroke="#6366f1" stroke-width="2" fill="none"></path></g><g transform="translate(769 574) rotate(0 -137.5 55)"><path d="M-248.35 110.08 C-254.78 108.9, -259.14 111.97, -273.34 110.83 M-248.35 110.08 C-254.77 109.93, -262.56 110.24, -273.34 110.83" stroke="#6366f1" stroke-width="2" fill="none"></path></g></g><mask></mask><g transform="translate(29 854) rotate(0 525 12.824999999999989)"><text x="0" y="17.955371093750003" font-family="Helvetica, Segoe UI Emoji" font-size="19px" fill="#1e1e1e" text-anchor="start" style="white-space: pre;" direction="ltr" dominant-baseline="alphabetic">Registration does not imply NAMS support for preferences, facts or direct relationship creation.</text></g></svg>
