<svg version="1.1" xmlns="http://www.w3.org/2000/svg" viewBox="0 0 908 554" width="908" height="554"><!-- svg-source:excalidraw --><metadata></metadata><defs><style class="style-fonts">
      </style></defs><rect x="0" y="0" width="908" height="554" fill="#ffffff"></rect><g stroke-linecap="round" transform="translate(24 24) rotate(0 130 95)"><path d="M32 0 C109.21 5.34, 177.91 -0.46, 228 0 C247.53 -2.89, 260.5 7.76, 260 32 C258.12 69.77, 260.63 99.06, 260 158 C259.52 182.18, 249.01 186.88, 228 190 C158.33 189.98, 90.14 190.22, 32 190 C10.61 188.47, -3.01 178.57, 0 158 C3.74 123.61, 1.38 97.22, 0 32 C-2.76 14.2, 8.18 3.57, 32 0" stroke="none" stroke-width="0" fill="#ffec99"></path><path d="M32 0 C75.49 -0.59, 115.8 0.95, 228 0 M32 0 C94.64 1.43, 156.55 2.65, 228 0 M228 0 C247.41 -0.15, 259.38 9.52, 260 32 M228 0 C251.04 -0.93, 260.79 10.14, 260 32 M260 32 C258.87 63.54, 258.8 95.04, 260 158 M260 32 C259.14 65.86, 260.52 99.51, 260 158 M260 158 C260.61 179.94, 248.56 191.62, 228 190 M260 158 C259.51 180.03, 247.77 191.56, 228 190 M228 190 C164.35 189.84, 103.84 191.53, 32 190 M228 190 C166.21 188.53, 105.54 188.57, 32 190 M32 190 C9.48 189.57, -1.34 180.94, 0 158 M32 190 C11.32 190.93, 1.56 180.39, 0 158 M0 158 C-1.09 130.99, 0.36 106.28, 0 32 M0 158 C0.68 131.27, 0.16 102.38, 0 32 M0 32 C-1.47 10.44, 11.49 -0.12, 32 0 M0 32 C-0.82 8.92, 12.61 -2.08, 32 0" stroke="#f08c00" stroke-width="2" fill="none"></path></g><g transform="translate(40 44) rotate(0 114 15)"><text x="114" y="21.48046875" font-family="Helvetica, Segoe UI Emoji" font-size="24px" fill="#1e1e1e" text-anchor="middle" style="white-space: pre;" direction="ltr" dominant-baseline="alphabetic">PERSON</text></g><g transform="translate(40 88) rotate(0 114 50)"><text x="114" y="17.900390625" font-family="Helvetica, Segoe UI Emoji" font-size="20px" fill="#495057" text-anchor="middle" style="white-space: pre;" direction="ltr" dominant-baseline="alphabetic">Individual</text><text x="114" y="42.900390625" font-family="Helvetica, Segoe UI Emoji" font-size="20px" fill="#495057" text-anchor="middle" style="white-space: pre;" direction="ltr" dominant-baseline="alphabetic">Alias</text><text x="114" y="67.900390625" font-family="Helvetica, Segoe UI Emoji" font-size="20px" fill="#495057" text-anchor="middle" style="white-space: pre;" direction="ltr" dominant-baseline="alphabetic">Persona</text><text x="114" y="92.900390625" font-family="Helvetica, Segoe UI Emoji" font-size="20px" fill="#495057" text-anchor="middle" style="white-space: pre;" direction="ltr" dominant-baseline="alphabetic">Witness</text></g><g stroke-linecap="round" transform="translate(324 24) rotate(0 130 95)"><path d="M32 0 C91.47 -3.13, 149.04 -1.67, 228 0 C249.68 2.42, 263.06 7.5, 260 32 C261.07 57.97, 262.41 87.47, 260 158 C260.32 180.45, 247.95 189.1, 228 190 C151.65 183.81, 85.57 184.06, 32 190 C7.12 193.38, -0.85 178.51, 0 158 C-2.11 116.05, 1.01 79.9, 0 32 C3.25 9.65, 11.02 0.71, 32 0" stroke="none" stroke-width="0" fill="#ffec99"></path><path d="M32 0 C76.64 2.73, 117.89 1.47, 228 0 M32 0 C100.08 -0.46, 169.71 -1.93, 228 0 M228 0 C247.63 -0.98, 260.65 11.28, 260 32 M228 0 C247.63 -2.16, 261.98 11.32, 260 32 M260 32 C261.64 74.28, 258.94 120.88, 260 158 M260 32 C261.89 58.04, 261.77 84.13, 260 158 M260 158 C260.18 178.35, 247.46 189.3, 228 190 M260 158 C258.57 180.41, 248.79 191.82, 228 190 M228 190 C187.43 188.43, 143.56 190.24, 32 190 M228 190 C187.59 188.12, 147.31 188.3, 32 190 M32 190 C10.16 191.84, 1.61 180.1, 0 158 M32 190 C8.5 190.82, 0.71 180.97, 0 158 M0 158 C2.14 118.08, -0.52 74.65, 0 32 M0 158 C0.38 123.72, 1.17 87.6, 0 32 M0 32 C1.14 10.42, 10.18 0.03, 32 0 M0 32 C0.06 10.29, 9.49 -2.24, 32 0" stroke="#f08c00" stroke-width="2" fill="none"></path></g><g transform="translate(340 44) rotate(0 114 15)"><text x="114" y="21.48046875" font-family="Helvetica, Segoe UI Emoji" font-size="24px" fill="#1e1e1e" text-anchor="middle" style="white-space: pre;" direction="ltr" dominant-baseline="alphabetic">OBJECT</text></g><g transform="translate(340 88) rotate(0 114 50)"><text x="114" y="17.900390625" font-family="Helvetica, Segoe UI Emoji" font-size="20px" fill="#495057" text-anchor="middle" style="white-space: pre;" direction="ltr" dominant-baseline="alphabetic">Vehicle</text><text x="114" y="42.900390625" font-family="Helvetica, Segoe UI Emoji" font-size="20px" fill="#495057" text-anchor="middle" style="white-space: pre;" direction="ltr" dominant-baseline="alphabetic">Device</text><text x="114" y="67.900390625" font-family="Helvetica, Segoe UI Emoji" font-size="20px" fill="#495057" text-anchor="middle" style="white-space: pre;" direction="ltr" dominant-baseline="alphabetic">Document</text><text x="114" y="92.900390625" font-family="Helvetica, Segoe UI Emoji" font-size="20px" fill="#495057" text-anchor="middle" style="white-space: pre;" direction="ltr" dominant-baseline="alphabetic">Weapon</text></g><g stroke-linecap="round" transform="translate(624 24) rotate(0 130 95)"><path d="M32 0 C73.73 2.66, 120.17 4.17, 228 0 C251.83 0.54, 258.43 7.23, 260 32 C261.35 78.58, 261.52 126.29, 260 158 C261.13 178.71, 246.89 191.32, 228 190 C152.17 191.91, 81 192.15, 32 190 C10.83 191.1, 1.31 178.45, 0 158 C-0.77 108.48, 0.64 62.59, 0 32 C2.05 12.31, 13.86 -2.15, 32 0" stroke="none" stroke-width="0" fill="#ffec99"></path><path d="M32 0 C73.79 -1.87, 115.98 -1.94, 228 0 M32 0 C107.52 -0.44, 182.87 -0.59, 228 0 M228 0 C247.85 -1.8, 261.93 9.05, 260 32 M228 0 C248.82 1.2, 258.57 12.51, 260 32 M260 32 C257.89 63.81, 260.56 96.33, 260 158 M260 32 C260.12 75.43, 260.5 117.14, 260 158 M260 158 C259.76 180.76, 250.37 190.98, 228 190 M260 158 C262.24 180.79, 249.8 192.08, 228 190 M228 190 C167.32 191.03, 104.89 188.96, 32 190 M228 190 C167.78 191.64, 108.68 191.94, 32 190 M32 190 C10.84 190.12, 0.55 179.27, 0 158 M32 190 C10.29 190.71, -0.13 181.55, 0 158 M0 158 C1.37 126.36, -1.41 93.42, 0 32 M0 158 C0.08 116.18, 0.18 72.82, 0 32 M0 32 C-0.24 10.4, 8.87 0.18, 32 0 M0 32 C0.94 11.66, 10.97 2.19, 32 0" stroke="#f08c00" stroke-width="2" fill="none"></path></g><g transform="translate(640 44) rotate(0 114 15)"><text x="114" y="21.48046875" font-family="Helvetica, Segoe UI Emoji" font-size="24px" fill="#1e1e1e" text-anchor="middle" style="white-space: pre;" direction="ltr" dominant-baseline="alphabetic">LOCATION</text></g><g transform="translate(640 88) rotate(0 114 50)"><text x="114" y="17.900390625" font-family="Helvetica, Segoe UI Emoji" font-size="20px" fill="#495057" text-anchor="middle" style="white-space: pre;" direction="ltr" dominant-baseline="alphabetic">Address</text><text x="114" y="42.900390625" font-family="Helvetica, Segoe UI Emoji" font-size="20px" fill="#495057" text-anchor="middle" style="white-space: pre;" direction="ltr" dominant-baseline="alphabetic">Region</text><text x="114" y="67.900390625" font-family="Helvetica, Segoe UI Emoji" font-size="20px" fill="#495057" text-anchor="middle" style="white-space: pre;" direction="ltr" dominant-baseline="alphabetic">Landmark</text><text x="114" y="92.900390625" font-family="Helvetica, Segoe UI Emoji" font-size="20px" fill="#495057" text-anchor="middle" style="white-space: pre;" direction="ltr" dominant-baseline="alphabetic">Country</text></g><g stroke-linecap="round" transform="translate(174 254) rotate(0 130 95)"><path d="M32 0 C95.19 1.39, 162.5 -4.24, 228 0 C246.78 -1.35, 260.99 14.16, 260 32 C257.1 73.98, 256.09 114.7, 260 158 C261.93 176.97, 245.82 193.55, 228 190 C152.69 185.74, 69.23 185.99, 32 190 C7.34 188.81, 3.47 178.39, 0 158 C0.57 126.12, 0.28 102.88, 0 32 C0.85 7.76, 9.5 2.19, 32 0" stroke="none" stroke-width="0" fill="#ffec99"></path><path d="M32 0 C74.94 1.45, 118.07 2.58, 228 0 M32 0 C73.76 -0.41, 115.63 0.74, 228 0 M228 0 C248.06 1.37, 259.2 10.81, 260 32 M228 0 C250.02 -0.03, 259.76 9.1, 260 32 M260 32 C260.66 78.55, 260.7 122.17, 260 158 M260 32 C258.35 67.61, 259.22 101.75, 260 158 M260 158 C259.33 179.17, 249.27 188.65, 228 190 M260 158 C261.3 181.17, 250.82 187.75, 228 190 M228 190 C186.4 189.62, 148.61 187.68, 32 190 M228 190 C149.96 191.23, 72.05 189.67, 32 190 M32 190 C11.52 188.39, -0.5 178.44, 0 158 M32 190 C12.07 190.61, -0.97 177.53, 0 158 M0 158 C0.6 109.44, -2.29 65.8, 0 32 M0 158 C-0.22 108.63, -0.81 58.05, 0 32 M0 32 C-1.63 10.38, 11.57 0.33, 32 0 M0 32 C1.81 8.43, 12.45 2.03, 32 0" stroke="#f08c00" stroke-width="2" fill="none"></path></g><g transform="translate(190 274) rotate(0 114 15)"><text x="114" y="21.48046875" font-family="Helvetica, Segoe UI Emoji" font-size="24px" fill="#1e1e1e" text-anchor="middle" style="white-space: pre;" direction="ltr" dominant-baseline="alphabetic">EVENT</text></g><g transform="translate(190 318) rotate(0 114 50)"><text x="114" y="17.900390625" font-family="Helvetica, Segoe UI Emoji" font-size="20px" fill="#495057" text-anchor="middle" style="white-space: pre;" direction="ltr" dominant-baseline="alphabetic">Meeting</text><text x="114" y="42.900390625" font-family="Helvetica, Segoe UI Emoji" font-size="20px" fill="#495057" text-anchor="middle" style="white-space: pre;" direction="ltr" dominant-baseline="alphabetic">Transaction</text><text x="114" y="67.900390625" font-family="Helvetica, Segoe UI Emoji" font-size="20px" fill="#495057" text-anchor="middle" style="white-space: pre;" direction="ltr" dominant-baseline="alphabetic">Incident</text><text x="114" y="92.900390625" font-family="Helvetica, Segoe UI Emoji" font-size="20px" fill="#495057" text-anchor="middle" style="white-space: pre;" direction="ltr" dominant-baseline="alphabetic">Communication</text></g><g stroke-linecap="round" transform="translate(474 254) rotate(0 130 95)"><path d="M32 0 C84.65 -0.03, 133.63 1.6, 228 0 C248.93 -3.24, 263.56 13.89, 260 32 C264.58 69.39, 262.4 103.12, 260 158 C262.73 182.43, 251.96 188.57, 228 190 C185.21 193.84, 143.07 194.09, 32 190 C11.05 186.53, -1.57 178.33, 0 158 C1.92 118.55, -0.09 85.56, 0 32 C-0.34 10.42, 12.34 -0.67, 32 0" stroke="none" stroke-width="0" fill="#ffec99"></path><path d="M32 0 C76.09 -3.15, 116.17 -0.83, 228 0 M32 0 C81.2 1.62, 128.79 0.08, 228 0 M228 0 C248.28 0.55, 260.47 12.57, 260 32 M228 0 C251.21 -1.26, 260.95 10.29, 260 32 M260 32 C260.91 64.08, 258.33 97.62, 260 158 M260 32 C261.1 59.79, 260.47 86.36, 260 158 M260 158 C258.9 177.58, 248.18 190.33, 228 190 M260 158 C260.37 181.54, 247.23 188.01, 228 190 M228 190 C170.29 188.21, 109.93 190.39, 32 190 M228 190 C171.35 188.82, 113.81 189.4, 32 190 M32 190 C12.2 190.67, -1.56 177.6, 0 158 M32 190 C9.25 190.5, -1.81 178.1, 0 158 M0 158 C-0.17 121.73, 0.83 84.57, 0 32 M0 158 C0 126.29, 0.72 93.67, 0 32 M0 32 C0.99 10.36, 10.26 0.49, 32 0 M0 32 C-1.91 9.81, 9.34 1.86, 32 0" stroke="#f08c00" stroke-width="2" fill="none"></path></g><g transform="translate(490 274) rotate(0 114 15)"><text x="114" y="21.48046875" font-family="Helvetica, Segoe UI Emoji" font-size="24px" fill="#1e1e1e" text-anchor="middle" style="white-space: pre;" direction="ltr" dominant-baseline="alphabetic">ORGANIZATION</text></g><g transform="translate(490 318) rotate(0 114 50)"><text x="114" y="17.900390625" font-family="Helvetica, Segoe UI Emoji" font-size="20px" fill="#495057" text-anchor="middle" style="white-space: pre;" direction="ltr" dominant-baseline="alphabetic">Company</text><text x="114" y="42.900390625" font-family="Helvetica, Segoe UI Emoji" font-size="20px" fill="#495057" text-anchor="middle" style="white-space: pre;" direction="ltr" dominant-baseline="alphabetic">Government</text><text x="114" y="67.900390625" font-family="Helvetica, Segoe UI Emoji" font-size="20px" fill="#495057" text-anchor="middle" style="white-space: pre;" direction="ltr" dominant-baseline="alphabetic">Nonprofit</text><text x="114" y="92.900390625" font-family="Helvetica, Segoe UI Emoji" font-size="20px" fill="#495057" text-anchor="middle" style="white-space: pre;" direction="ltr" dominant-baseline="alphabetic">Educational</text></g><g transform="translate(24 480) rotate(0 430 25)"><text x="430" y="17.900390625" font-family="Helvetica, Segoe UI Emoji" font-size="20px" fill="#1e1e1e" text-anchor="middle" style="white-space: pre;" direction="ltr" dominant-baseline="alphabetic">Types and subtypes become PascalCase Neo4j labels,</text><text x="430" y="42.900390625" font-family="Helvetica, Segoe UI Emoji" font-size="20px" fill="#1e1e1e" text-anchor="middle" style="white-space: pre;" direction="ltr" dominant-baseline="alphabetic">for example :Entity:Person:Individual or :Entity:Organization:Company</text></g></svg>
