<svg version="1.1" xmlns="http://www.w3.org/2000/svg" viewBox="0 0 828 560" width="828" height="560"><!-- svg-source:excalidraw --><metadata></metadata><defs><style class="style-fonts">
      </style></defs><rect x="0" y="0" width="828" height="560" fill="#ffffff"></rect><g transform="translate(364 24) rotate(0 220 20)"><text x="220" y="28.640625" font-family="Helvetica, Segoe UI Emoji" font-size="32px" fill="#1e1e1e" text-anchor="middle" style="white-space: pre;" direction="ltr" dominant-baseline="alphabetic">POLE+O Entity Model</text></g><g stroke-linecap="round" transform="translate(24 94) rotate(0 110 80)"><path d="M32 0 C69.58 -1.01, 97.46 0.2, 188 0 C212.09 -2.71, 220.43 14.22, 220 32 C217.59 63.47, 216.2 96.95, 220 128 C217.73 152.64, 211.56 157.97, 188 160 C136.17 159.33, 85.81 158.13, 32 160 C7.68 157.22, 0.36 151.72, 0 128 C-1.61 102.24, 1.71 84.51, 0 32 C2.2 9.91, 9.94 -0.48, 32 0" stroke="none" stroke-width="0" fill="#b2f2bb"></path><path d="M32 0 C64.06 0.65, 94.08 0.85, 188 0 M32 0 C74.63 -0.17, 116.63 1.05, 188 0 M188 0 C208.04 0.53, 220.88 12.29, 220 32 M188 0 C209.53 0.56, 218.67 12.4, 220 32 M220 32 C221.09 51.13, 220.66 74.99, 220 128 M220 32 C218.78 69.08, 219.53 106.2, 220 128 M220 128 C220.6 147.73, 209.82 158.28, 188 160 M220 128 C218.31 149.4, 210.27 160.81, 188 160 M188 160 C155.41 161.33, 121.74 161.35, 32 160 M188 160 C154.13 162.19, 120.43 161.55, 32 160 M32 160 C8.78 159.71, -0.18 149.86, 0 128 M32 160 C12.5 159.98, 2.16 149.43, 0 128 M0 128 C-1.42 100.18, 0.56 71.4, 0 32 M0 128 C-0.69 102.1, 0.53 74.26, 0 32 M0 32 C0.44 12.66, 9.12 -1.31, 32 0 M0 32 C-0.62 8.6, 11.68 2.27, 32 0" stroke="#2f9e44" stroke-width="2" fill="none"></path></g><g transform="translate(74 112) rotate(0 60 15)"><text x="60" y="21.48046875" font-family="Helvetica, Segoe UI Emoji" font-size="24px" fill="#1a6b2e" text-anchor="middle" style="white-space: pre;" direction="ltr" dominant-baseline="alphabetic">PERSON</text></g><g transform="translate(39 152) rotate(0 90 44)"><text x="0" y="15.59033203125" font-family="Helvetica, Segoe UI Emoji" font-size="17px" fill="#2d7a3a" text-anchor="start" style="white-space: pre;" direction="ltr" dominant-baseline="alphabetic">Individual</text><text x="0" y="37.59033203125" font-family="Helvetica, Segoe UI Emoji" font-size="17px" fill="#2d7a3a" text-anchor="start" style="white-space: pre;" direction="ltr" dominant-baseline="alphabetic">Professional</text><text x="0" y="59.59033203125" font-family="Helvetica, Segoe UI Emoji" font-size="17px" fill="#2d7a3a" text-anchor="start" style="white-space: pre;" direction="ltr" dominant-baseline="alphabetic">Alias</text><text x="0" y="81.59033203125" font-family="Helvetica, Segoe UI Emoji" font-size="17px" fill="#2d7a3a" text-anchor="start" style="white-space: pre;" direction="ltr" dominant-baseline="alphabetic">Contact</text></g><g stroke-linecap="round" transform="translate(284 94) rotate(0 110 80)"><path d="M32 0 C69.58 -1.01, 97.46 0.2, 188 0 C212.09 -2.71, 220.43 14.22, 220 32 C217.59 63.47, 216.2 96.95, 220 128 C217.73 152.64, 211.56 157.97, 188 160 C136.17 159.33, 85.81 158.13, 32 160 C7.68 157.22, 0.36 151.72, 0 128 C-1.61 102.24, 1.71 84.51, 0 32 C2.2 9.91, 9.94 -0.48, 32 0" stroke="none" stroke-width="0" fill="#ffd8a8"></path><path d="M32 0 C64.06 0.65, 94.08 0.85, 188 0 M32 0 C74.63 -0.17, 116.63 1.05, 188 0 M188 0 C208.04 0.53, 220.88 12.29, 220 32 M188 0 C209.53 0.56, 218.67 12.4, 220 32 M220 32 C221.09 51.13, 220.66 74.99, 220 128 M220 32 C218.78 69.08, 219.53 106.2, 220 128 M220 128 C220.6 147.73, 209.82 158.28, 188 160 M220 128 C218.31 149.4, 210.27 160.81, 188 160 M188 160 C155.41 161.33, 121.74 161.35, 32 160 M188 160 C154.13 162.19, 120.43 161.55, 32 160 M32 160 C8.78 159.71, -0.18 149.86, 0 128 M32 160 C12.5 159.98, 2.16 149.43, 0 128 M0 128 C-1.42 100.18, 0.56 71.4, 0 32 M0 128 C-0.69 102.1, 0.53 74.26, 0 32 M0 32 C0.44 12.66, 9.12 -1.31, 32 0 M0 32 C-0.62 8.6, 11.68 2.27, 32 0" stroke="#e8590c" stroke-width="2" fill="none"></path></g><g transform="translate(344 112) rotate(0 50 15)"><text x="50" y="21.48046875" font-family="Helvetica, Segoe UI Emoji" font-size="24px" fill="#7d3200" text-anchor="middle" style="white-space: pre;" direction="ltr" dominant-baseline="alphabetic">OBJECT</text></g><g transform="translate(299 152) rotate(0 90 44)"><text x="0" y="15.59033203125" font-family="Helvetica, Segoe UI Emoji" font-size="17px" fill="#7d3200" text-anchor="start" style="white-space: pre;" direction="ltr" dominant-baseline="alphabetic">Vehicle</text><text x="0" y="37.59033203125" font-family="Helvetica, Segoe UI Emoji" font-size="17px" fill="#7d3200" text-anchor="start" style="white-space: pre;" direction="ltr" dominant-baseline="alphabetic">Device</text><text x="0" y="59.59033203125" font-family="Helvetica, Segoe UI Emoji" font-size="17px" fill="#7d3200" text-anchor="start" style="white-space: pre;" direction="ltr" dominant-baseline="alphabetic">Document</text><text x="0" y="81.59033203125" font-family="Helvetica, Segoe UI Emoji" font-size="17px" fill="#7d3200" text-anchor="start" style="white-space: pre;" direction="ltr" dominant-baseline="alphabetic">Weapon</text></g><g stroke-linecap="round" transform="translate(544 94) rotate(0 110 80)"><path d="M32 0 C69.58 -1.01, 97.46 0.2, 188 0 C212.09 -2.71, 220.43 14.22, 220 32 C217.59 63.47, 216.2 96.95, 220 128 C217.73 152.64, 211.56 157.97, 188 160 C136.17 159.33, 85.81 158.13, 32 160 C7.68 157.22, 0.36 151.72, 0 128 C-1.61 102.24, 1.71 84.51, 0 32 C2.2 9.91, 9.94 -0.48, 32 0" stroke="none" stroke-width="0" fill="#a5d8ff"></path><path d="M32 0 C64.06 0.65, 94.08 0.85, 188 0 M32 0 C74.63 -0.17, 116.63 1.05, 188 0 M188 0 C208.04 0.53, 220.88 12.29, 220 32 M188 0 C209.53 0.56, 218.67 12.4, 220 32 M220 32 C221.09 51.13, 220.66 74.99, 220 128 M220 32 C218.78 69.08, 219.53 106.2, 220 128 M220 128 C220.6 147.73, 209.82 158.28, 188 160 M220 128 C218.31 149.4, 210.27 160.81, 188 160 M188 160 C155.41 161.33, 121.74 161.35, 32 160 M188 160 C154.13 162.19, 120.43 161.55, 32 160 M32 160 C8.78 159.71, -0.18 149.86, 0 128 M32 160 C12.5 159.98, 2.16 149.43, 0 128 M0 128 C-1.42 100.18, 0.56 71.4, 0 32 M0 128 C-0.69 102.1, 0.53 74.26, 0 32 M0 32 C0.44 12.66, 9.12 -1.31, 32 0 M0 32 C-0.62 8.6, 11.68 2.27, 32 0" stroke="#1971c2" stroke-width="2" fill="none"></path></g><g transform="translate(584 112) rotate(0 70 15)"><text x="70" y="21.48046875" font-family="Helvetica, Segoe UI Emoji" font-size="24px" fill="#0c3f7a" text-anchor="middle" style="white-space: pre;" direction="ltr" dominant-baseline="alphabetic">LOCATION</text></g><g transform="translate(559 152) rotate(0 90 44)"><text x="0" y="15.59033203125" font-family="Helvetica, Segoe UI Emoji" font-size="17px" fill="#0c3f7a" text-anchor="start" style="white-space: pre;" direction="ltr" dominant-baseline="alphabetic">Address</text><text x="0" y="37.59033203125" font-family="Helvetica, Segoe UI Emoji" font-size="17px" fill="#0c3f7a" text-anchor="start" style="white-space: pre;" direction="ltr" dominant-baseline="alphabetic">Region</text><text x="0" y="59.59033203125" font-family="Helvetica, Segoe UI Emoji" font-size="17px" fill="#0c3f7a" text-anchor="start" style="white-space: pre;" direction="ltr" dominant-baseline="alphabetic">Landmark</text><text x="0" y="81.59033203125" font-family="Helvetica, Segoe UI Emoji" font-size="17px" fill="#0c3f7a" text-anchor="start" style="white-space: pre;" direction="ltr" dominant-baseline="alphabetic">Country</text></g><g stroke-linecap="round" transform="translate(154 314) rotate(0 110 80)"><path d="M32 0 C69.58 -1.01, 97.46 0.2, 188 0 C212.09 -2.71, 220.43 14.22, 220 32 C217.59 63.47, 216.2 96.95, 220 128 C217.73 152.64, 211.56 157.97, 188 160 C136.17 159.33, 85.81 158.13, 32 160 C7.68 157.22, 0.36 151.72, 0 128 C-1.61 102.24, 1.71 84.51, 0 32 C2.2 9.91, 9.94 -0.48, 32 0" stroke="none" stroke-width="0" fill="#fff3bf"></path><path d="M32 0 C64.06 0.65, 94.08 0.85, 188 0 M32 0 C74.63 -0.17, 116.63 1.05, 188 0 M188 0 C208.04 0.53, 220.88 12.29, 220 32 M188 0 C209.53 0.56, 218.67 12.4, 220 32 M220 32 C221.09 51.13, 220.66 74.99, 220 128 M220 32 C218.78 69.08, 219.53 106.2, 220 128 M220 128 C220.6 147.73, 209.82 158.28, 188 160 M220 128 C218.31 149.4, 210.27 160.81, 188 160 M188 160 C155.41 161.33, 121.74 161.35, 32 160 M188 160 C154.13 162.19, 120.43 161.55, 32 160 M32 160 C8.78 159.71, -0.18 149.86, 0 128 M32 160 C12.5 159.98, 2.16 149.43, 0 128 M0 128 C-1.42 100.18, 0.56 71.4, 0 32 M0 128 C-0.69 102.1, 0.53 74.26, 0 32 M0 32 C0.44 12.66, 9.12 -1.31, 32 0 M0 32 C-0.62 8.6, 11.68 2.27, 32 0" stroke="#e67700" stroke-width="2" fill="none"></path></g><g transform="translate(219 332) rotate(0 50 15)"><text x="50" y="21.48046875" font-family="Helvetica, Segoe UI Emoji" font-size="24px" fill="#7d3c00" text-anchor="middle" style="white-space: pre;" direction="ltr" dominant-baseline="alphabetic">EVENT</text></g><g transform="translate(169 372) rotate(0 90 44)"><text x="0" y="15.59033203125" font-family="Helvetica, Segoe UI Emoji" font-size="17px" fill="#7d3c00" text-anchor="start" style="white-space: pre;" direction="ltr" dominant-baseline="alphabetic">Meeting</text><text x="0" y="37.59033203125" font-family="Helvetica, Segoe UI Emoji" font-size="17px" fill="#7d3c00" text-anchor="start" style="white-space: pre;" direction="ltr" dominant-baseline="alphabetic">Transaction</text><text x="0" y="59.59033203125" font-family="Helvetica, Segoe UI Emoji" font-size="17px" fill="#7d3c00" text-anchor="start" style="white-space: pre;" direction="ltr" dominant-baseline="alphabetic">Incident</text><text x="0" y="81.59033203125" font-family="Helvetica, Segoe UI Emoji" font-size="17px" fill="#7d3c00" text-anchor="start" style="white-space: pre;" direction="ltr" dominant-baseline="alphabetic">Activity</text></g><g stroke-linecap="round" transform="translate(414 314) rotate(0 110 80)"><path d="M32 0 C69.58 -1.01, 97.46 0.2, 188 0 C212.09 -2.71, 220.43 14.22, 220 32 C217.59 63.47, 216.2 96.95, 220 128 C217.73 152.64, 211.56 157.97, 188 160 C136.17 159.33, 85.81 158.13, 32 160 C7.68 157.22, 0.36 151.72, 0 128 C-1.61 102.24, 1.71 84.51, 0 32 C2.2 9.91, 9.94 -0.48, 32 0" stroke="none" stroke-width="0" fill="#d0bfff"></path><path d="M32 0 C64.06 0.65, 94.08 0.85, 188 0 M32 0 C74.63 -0.17, 116.63 1.05, 188 0 M188 0 C208.04 0.53, 220.88 12.29, 220 32 M188 0 C209.53 0.56, 218.67 12.4, 220 32 M220 32 C221.09 51.13, 220.66 74.99, 220 128 M220 32 C218.78 69.08, 219.53 106.2, 220 128 M220 128 C220.6 147.73, 209.82 158.28, 188 160 M220 128 C218.31 149.4, 210.27 160.81, 188 160 M188 160 C155.41 161.33, 121.74 161.35, 32 160 M188 160 C154.13 162.19, 120.43 161.55, 32 160 M32 160 C8.78 159.71, -0.18 149.86, 0 128 M32 160 C12.5 159.98, 2.16 149.43, 0 128 M0 128 C-1.42 100.18, 0.56 71.4, 0 32 M0 128 C-0.69 102.1, 0.53 74.26, 0 32 M0 32 C0.44 12.66, 9.12 -1.31, 32 0 M0 32 C-0.62 8.6, 11.68 2.27, 32 0" stroke="#7048e8" stroke-width="2" fill="none"></path></g><g transform="translate(424 332) rotate(0 100 15)"><text x="100" y="20.400390625" font-family="Helvetica, Segoe UI Emoji" font-size="20px" fill="#3c1a9a" text-anchor="middle" style="white-space: pre;" direction="ltr" dominant-baseline="alphabetic">ORGANIZATION</text></g><g transform="translate(429 372) rotate(0 90 44)"><text x="0" y="15.59033203125" font-family="Helvetica, Segoe UI Emoji" font-size="17px" fill="#3c1a9a" text-anchor="start" style="white-space: pre;" direction="ltr" dominant-baseline="alphabetic">Company</text><text x="0" y="37.59033203125" font-family="Helvetica, Segoe UI Emoji" font-size="17px" fill="#3c1a9a" text-anchor="start" style="white-space: pre;" direction="ltr" dominant-baseline="alphabetic">Government</text><text x="0" y="59.59033203125" font-family="Helvetica, Segoe UI Emoji" font-size="17px" fill="#3c1a9a" text-anchor="start" style="white-space: pre;" direction="ltr" dominant-baseline="alphabetic">NGO</text><text x="0" y="81.59033203125" font-family="Helvetica, Segoe UI Emoji" font-size="17px" fill="#3c1a9a" text-anchor="start" style="white-space: pre;" direction="ltr" dominant-baseline="alphabetic">Institution</text></g><g transform="translate(24 514) rotate(0 390 11)"><text x="0" y="15.3203125" font-family="Helvetica, Segoe UI Emoji" font-size="16px" fill="#666666" text-anchor="start" style="white-space: pre;" direction="ltr" dominant-baseline="alphabetic">Subtypes become PascalCase Neo4j labels:  :Entity:Person:Individual  |  :Entity:Organization:Company</text></g></svg>
